<!-- icon666.com - MILLIONS OF FREE VECTOR ICONS --><svg viewBox="0 0 100 100" xmlns="http://www.w3.org/2000/svg"><g id="color"><path d="m88.33 63.991 3.14 11.734-11.734-3.151a33.312 33.312 0 0 1 -15.115 5.661 33.381 33.381 0 0 0 -28.544-55.588c.366-.412.745-.8 1.134-1.192a33.39 33.39 0 0 1 51.119 42.536z" fill="#03c4a1" style="fill: rgb(255, 75, 85);"></path></g><g id="object"><g id="_40" data-name="40"><path d="m55.821 79.874a1 1 0 0 1 -.321 1.376 29.9 29.9 0 0 1 -12.1 4.271 1.066 1.066 0 0 1 -.126.008 1 1 0 0 1 -.123-1.992 27.925 27.925 0 0 0 11.3-3.987 1 1 0 0 1 1.37.324zm3.8-4.425a29.122 29.122 0 0 1 -2.8 2.457 1 1 0 1 0 1.221 1.584 31.059 31.059 0 0 0 2.988-2.627 1 1 0 0 0 -1.414-1.414zm32.472-.424a1 1 0 0 1 -1.225 1.224l-11.297-3.033a34.492 34.492 0 0 1 -14.65 5.505.945.945 0 0 1 -.13.008.17.17 0 0 1 -.022 0c-.3.327-.594.651-.911.966a34.351 34.351 0 0 1 -43.426 4.274l-11.291 3.031a1 1 0 0 1 -1.225-1.226l3.032-11.291a34.376 34.376 0 0 1 24.394-53.234 1.006 1.006 0 0 1 .2-.311q.3-.318.619-.632a34.39 34.39 0 0 1 52.91 43.427zm-28.559 2.095a32.387 32.387 0 1 0 -50.679-3.39 1 1 0 0 1 .143.827l-2.698 10.059 10.059-2.7a.993.993 0 0 1 .827.142 32.357 32.357 0 0 0 41.261-3.78c.372-.372.734-.744 1.073-1.137zm26.174-3.252-2.691-10.06a1 1 0 0 1 .143-.826 32.385 32.385 0 0 0 -48.853-41.963 34.366 34.366 0 0 1 28.438 55.372 32.5 32.5 0 0 0 12.077-5.083 1 1 0 0 1 .826-.142zm-7.741-50.733a30.3 30.3 0 0 0 -9.743-6.554 1 1 0 0 0 -.774 1.844 28.563 28.563 0 0 1 12.15 9.718 1 1 0 0 0 1.628-1.162 30.747 30.747 0 0 0 -3.261-3.846zm-13.433-7.826a30.608 30.608 0 0 0 -8.067-1.076 1 1 0 0 0 0 2 28.569 28.569 0 0 1 7.54 1.006 1 1 0 0 0 .527-1.93zm-25.208 36.277a1 1 0 0 0 -1.414 0l-2.372 2.373-2.373-2.373a1 1 0 0 0 -1.414 1.414l2.372 2.373-2.372 2.373a1 1 0 1 0 1.414 1.414l2.373-2.373 2.372 2.373a1 1 0 1 0 1.414-1.414l-2.372-2.373 2.372-2.373a1 1 0 0 0 0-1.414zm15.551 2.787h-12.572a1 1 0 0 0 0 2h12.572a1 1 0 0 0 0-2zm-26.1 0h-12.577a1 1 0 1 0 0 2h12.574a1 1 0 0 0 0-2zm10.549-13.647a1 1 0 0 0 -1.414 0l-2.372 2.374-2.373-2.373a1 1 0 0 0 -1.414 1.414l2.372 2.373-2.372 2.373a1 1 0 1 0 1.414 1.413l2.373-2.373 2.372 2.373a1 1 0 1 0 1.414-1.414l-2.372-2.373 2.372-2.373a1 1 0 0 0 0-1.414zm2.979 4.787h12.572a1 1 0 0 0 0-2h-12.572a1 1 0 0 0 0 2zm-13.531-2h-12.574a1 1 0 1 0 0 2h12.574a1 1 0 0 0 0-2zm10.552 18.934a1 1 0 0 0 -1.414 0l-2.372 2.372-2.373-2.372a1 1 0 1 0 -1.414 1.414l2.372 2.372-2.372 2.373a1 1 0 1 0 1.414 1.414l2.373-2.373 2.372 2.373a1 1 0 0 0 1.414-1.414l-2.372-2.373 2.372-2.372a1 1 0 0 0 0-1.414zm15.551 2.787h-12.572a1 1 0 1 0 0 2h12.572a1 1 0 0 0 0-2zm-26.1 0h-12.577a1 1 0 0 0 0 2h12.574a1 1 0 0 0 0-2z" fill="#000000" style="fill: rgb(255, 75, 85);"></path></g></g></svg>