<!-- icon666.com - MILLIONS OF FREE VECTOR ICONS --><svg version="1.1" id="Layer_1" xmlns="http://www.w3.org/2000/svg" xmlns:xlink="http://www.w3.org/1999/xlink" x="0px" y="0px" viewBox="0 0 508 508" style="enable-background:new 0 0 508 508;" xml:space="preserve"><path style="fill: rgb(247, 247, 247);" d="M508,254c0-31.4-5.6-61.4-16-89c-9.6-25.6-23.2-49-39.8-70C405.4,37,334,0,254,0 C147.4,0,56,65.8,18.4,158.8C6.6,188.2,0,220.4,0,254c0,33.4,6.4,65.2,18,94.2c8.2,20.6,19.2,39.8,32.2,57.4h407.4 C489.4,363.4,508,310.8,508,254z" fill="#FFD479"></path><path style="fill: rgb(247, 247, 247);" d="M50.2,405.8C96.6,467.8,170.6,508,254,508s157.4-40.2,203.8-102.2H50.2z" fill="#B6875C"></path><path style="fill: rgb(32, 163, 172);" d="M326.2,135.6H181.8c-6.2,0-11.2,4.2-11.2,9.2v295.6c0,5.8,5.8,10.6,12.8,10.6h141.2 c7,0,12.8-4.8,12.8-10.6V144.8C337.4,139.8,332.4,135.6,326.2,135.6z" fill="#1F84AB"></path><path style="" d="M339.8,152.4H168.2c-5.4,0-9.8,4.4-9.8,9.8c0,5.4,4.4,9.8,9.8,9.8h171.6c5.4,0,9.8-4.4,9.8-9.8 C349.6,156.8,345.2,152.4,339.8,152.4z" fill="#106783"></path><path style="" d="M326.4,137C309,120.2,283,109.6,254,109.6s-55,10.6-72.4,27.4H326.4z" fill="#36505F"></path><path style="fill: rgb(63, 91, 115);" d="M268.8,95.4c-2.4,0-4.4-2-4.4-4.4s2-4.4,4.4-4.4h0.4l-0.6-8.8c-0.2-3.2-3.2-5.6-6.8-5.6h-16 c-3.6,0-6.6,2.4-6.8,5.6l-2,33h33.4l-1-15.4C269.4,95.4,268.8,95.4,268.8,95.4z" fill="#0B2C48"></path><g><polygon style="" points="272,86.4 272.2,86.8 349,61.8 349,57 " fill="#E65336"></polygon><polygon style="" points="272.2,89 349,78.8 349,73 272.2,88.6 " fill="#E65336"></polygon><polygon style="" points="272,95.2 349,124.8 349,119 272.2,94.6 " fill="#E65336"></polygon><polygon style="" points="272.2,93 349,108 349,102.8 272.2,92.4 " fill="#E65336"></polygon><polygon style="" points="272.2,91 349,93.4 349,88 272.2,90.4 " fill="#E65336"></polygon></g></svg>